<?xml version="1.0" encoding="UTF-8"?>
<svg width="881px" height="449px" viewBox="0 0 881 449" version="1.1" xmlns="http://www.w3.org/2000/svg" xmlns:xlink="http://www.w3.org/1999/xlink">
    <!-- Generator: Sketch 51.1 (57501) - http://www.bohemiancoding.com/sketch -->
    <title>go-abraham</title>
    <desc>Created with Sketch.</desc>
    <defs>
        <path d="M169.587408,0.264252396 C168.589919,0.439690615 166.185744,1.03191576 164.246307,1.57955441 C161.752585,2.28324583 159.745138,2.57499667 157.398772,2.57499667 C153.450755,2.57499667 151.41497,3.10809623 149.820122,4.56006559 C149.171754,5.14938292 148.049579,5.74354661 147.326399,5.88021396 C144.834943,6.3483723 143.287701,7.01523142 142.250539,8.06786071 C140.401784,9.94437115 138.203908,10.8041154 133.831958,11.3595082 C131.552469,11.6493205 129.619834,12.0593225 129.537087,12.2706238 C129.453208,12.481925 129.14716,12.6612404 128.856981,12.6680253 C128.565669,12.6757794 126.287313,14.3438964 123.793591,16.3764597 C121.299868,18.4090229 118.698462,20.3601673 118.012688,20.712013 C117.326915,21.0638587 116.765827,21.4893691 116.765827,21.6560839 C116.765827,21.8237679 116.408771,21.9633431 115.97237,21.9662509 C115.437353,21.9691587 114.747045,22.790132 113.851571,24.4863579 C113.120458,25.869509 112.355338,27.0006493 112.151306,27.0006493 C111.946141,27.0006493 111.778382,27.3515257 111.778382,27.7809132 C111.778382,28.2103007 111.589085,28.8645592 111.357849,29.2348211 C109.951163,31.483532 109.042087,33.729335 108.570547,36.1118054 C108.275834,37.6044842 107.550388,39.5730755 106.958696,40.4870989 C105.774177,42.3190229 105.358179,48.3886037 106.380605,48.9294574 C106.653781,49.073879 106.796603,49.7814475 106.699122,50.5025857 C106.589171,51.3012659 106.717258,51.8140107 107.025572,51.8140107 C107.574192,51.8140107 109.289192,56.0109582 108.883396,56.3579575 C108.747375,56.4733008 108.935538,56.9327358 109.300528,57.3795701 C109.665518,57.8254352 109.964765,58.7850144 109.964765,59.5129376 C109.964765,60.8941501 110.659607,63.4539973 111.40999,64.8323019 C111.712638,65.3906026 111.611755,66.57893 111.079005,68.7093897 C109.570303,74.7372918 109.840079,86.2784124 111.546012,88.6385897 C111.693368,88.842137 111.802185,96.6564072 111.78745,106.003097 C111.773848,115.349785 111.946141,123.512024 112.170576,124.141082 C113.400434,127.582967 113.638472,128.658859 113.79943,131.488163 C114.011396,135.236338 114.765181,138.366117 115.913427,140.263952 C116.382701,141.039369 116.765827,142.207342 116.765827,142.858693 C116.765827,143.510043 116.969859,144.150732 117.219231,144.282553 C117.468603,144.414374 117.672635,144.950381 117.672635,145.473788 C117.672635,145.997195 117.857398,146.728026 118.082966,147.098288 C118.959169,148.534749 120.846464,152.543657 120.846464,152.968199 C120.846464,153.887068 124.079235,159.197709 125.626477,160.82124 C131.9628,167.468507 137.926198,172.483519 140.430122,173.271537 C140.851788,173.404328 141.561365,174.002369 142.005701,174.600409 C142.451171,175.197481 142.937447,175.774198 143.085936,175.880818 C143.961007,176.508906 144.888218,180.60408 145.187465,185.16935 C145.333688,187.410307 145.653338,188.760503 146.194022,189.434147 C147.522496,191.088694 147.9725,192.589127 148.285349,196.404181 C148.450841,198.415421 148.962055,201.11969 149.421126,202.413667 C150.163575,204.49954 151.677945,215.684938 151.677945,219.079329 C151.677945,220.725152 149.701103,222.543507 148.181066,222.295373 C147.56557,222.194569 147.143904,222.314759 147.143904,222.59197 C147.143904,222.848827 146.366315,223.25786 145.416434,223.501147 C144.466553,223.744435 143.206089,224.383185 142.616663,224.919192 C142.027238,225.456169 141.344865,225.895249 141.100026,225.895249 C140.855188,225.895249 139.958582,226.349838 139.107315,226.904261 C138.09169,227.567243 137.184882,227.852209 136.46737,227.735897 C135.694316,227.608922 135.299854,227.761097 135.115092,228.257365 C134.971136,228.645074 134.581209,228.867037 134.240022,228.755571 C133.521376,228.519068 131.245288,229.450539 130.392888,230.328699 C130.068704,230.662129 129.114288,230.935463 128.27209,230.935463 C127.429892,230.935463 126.740718,231.082792 126.740718,231.262108 C126.740718,232.026864 123.556687,233.097909 123.103283,232.485329 C122.738293,231.991 122.672549,232.00554 122.666882,232.583226 C122.662348,232.997105 122.313226,233.261716 121.769141,233.261716 C121.278331,233.261716 120.105148,233.547651 119.162068,233.896589 C115.665188,235.191536 114.642762,235.443547 111.211626,235.853549 C110.27648,235.965984 109.511361,236.213149 109.511361,236.404095 C109.511361,236.595042 109.27219,236.751095 108.979744,236.751095 C108.688432,236.751095 108.127345,236.976935 107.732883,237.252208 C106.878216,237.851218 104.74495,238.456044 101.350086,239.063778 C99.9785385,239.308034 97.9858279,239.67345 96.922595,239.875058 C95.8593621,240.075697 94.2849161,240.240474 93.4223151,240.240474 C92.5608469,240.240474 91.155294,240.576811 90.2994943,240.987783 C89.1977219,241.517005 87.7014886,241.7632 85.1850952,241.828141 C82.4091285,241.898898 81.4105062,242.084998 80.6408528,242.671407 C80.0979009,243.085287 79.4393313,243.310158 79.1763569,243.171552 C78.9145162,243.031977 78.0995226,243.297557 77.3672743,243.760869 C76.460466,244.333709 75.5989987,244.547918 74.6683866,244.431606 C73.602887,244.297846 73.2514986,244.423851 73.0735375,245.003476 C72.9386498,245.446433 72.6337355,245.633503 72.3197532,245.467757 C72.0295745,245.314612 71.2508529,245.407663 70.5888829,245.674212 C68.5451637,246.498094 67.6224863,246.771428 66.2112659,246.970129 C63.5055768,247.351052 61.4505226,248.169118 61.4505226,248.865055 C61.4505226,249.239194 61.227221,249.545484 60.954045,249.545484 C60.680869,249.545484 59.856807,249.9109 59.1245593,250.356765 C58.3911782,250.803599 57.4923045,251.071118 57.1273142,250.950929 C56.7453212,250.825892 56.4630771,250.956744 56.4630771,251.259157 C56.4630771,251.551877 55.7705023,251.896938 54.8999664,252.036513 C53.5590236,252.251691 51.4144221,253.457466 48.7552069,255.490998 C47.784922,256.23346 41.537013,259.625912 41.1402844,259.625912 C40.9589228,259.625912 40.4307069,260.056269 39.9693682,260.582584 C39.5080295,261.107929 38.2350974,261.908548 37.1412599,262.361197 C36.0474225,262.813848 35.1530828,263.34307 35.1530828,263.537894 C35.1530828,263.731749 34.8821739,263.890709 34.5523224,263.890709 C33.8223417,263.890709 31.9792539,265.505516 31.9792539,266.145235 C31.9792539,266.398215 31.8160285,266.60467 31.6165306,266.60467 C30.6813846,266.60467 27.0688872,272.716899 26.5746767,275.134263 C26.2901655,276.520322 25.682604,278.43948 25.2223988,279.39906 C24.2509805,281.427746 22.9066372,286.1355 22.8975692,287.540944 C22.8941686,288.074044 22.4917724,288.946388 22.004363,289.479488 C21.5169536,290.012587 21.1134238,290.695924 21.1077564,290.999306 C21.1020888,291.301719 20.5205979,292.435767 19.8144211,293.519413 C19.1082441,294.60209 18.2615119,296.361318 17.9316603,297.427517 C17.6018088,298.493717 17.0577239,299.641335 16.7210713,299.977672 C16.3855522,300.314979 16.1101093,300.794768 16.1101093,301.043871 C16.1101093,301.293943 15.9060774,301.49846 15.6567051,301.49846 C15.3925972,301.49846 15.203301,302.782745 15.203301,304.576867 C15.203301,306.270185 14.9992691,307.763834 14.7498969,307.895654 C14.5005246,308.027475 14.2964927,308.563483 14.2964927,309.08689 C14.2964927,309.610297 14.0459869,310.381837 13.7399392,310.800562 C13.3148728,311.383095 13.3058047,311.837683 13.7002663,312.732322 C14.00178,313.416627 14.0448535,313.992375 13.8034158,314.120319 C13.5755802,314.240509 13.3896844,314.729991 13.3896844,315.207842 C13.3896844,315.685693 13.2015218,316.242055 12.9714192,316.444633 C12.7413166,316.647211 12.4636065,318.034239 12.353656,319.526918 C12.018137,324.096065 10.8030139,328.915285 9.76358491,329.8012 C9.49154243,330.032856 9.27617543,330.368224 6.03433592,335.616832 C4.65145331,337.85585 3.27083773,340.647353 2.96592344,341.820172 C2.66100917,342.992991 2.23254226,344.250137 2.01490828,344.613613 C1.7972743,344.97806 1.50369512,346.54828 1.36427335,348.102993 C1.20898243,349.832173 0.866662312,351.090288 0.482402308,351.340361 C-0.0367454244,351.679606 -0.100222003,353.659829 0.118545491,362.874697 L0.381519888,374 L210.69076,374 L421,374 L421,316.966101 L421,259.931233 L419.866489,259.169385 C419.243059,258.74969 418.73298,258.195267 418.73298,257.937441 C418.73298,257.679614 417.763828,257.226964 416.57931,256.931336 C415.394791,256.636678 413.665054,255.987266 412.734442,255.490029 C411.803831,254.992792 410.920826,254.585698 410.772336,254.585698 C410.623847,254.585698 409.88253,254.055506 409.124212,253.408033 C408.367027,252.75959 406.964875,251.888215 406.009326,251.471427 C405.053776,251.05464 404.108429,250.494401 403.907797,250.226882 C403.7083,249.958394 403.135877,249.550331 402.637133,249.319644 C402.138388,249.088957 401.542162,248.549072 401.313193,248.119685 C401.08309,247.690298 400.31797,247.153321 399.611794,246.924573 C398.711786,246.634761 398.410272,246.326532 398.604103,245.895206 C398.785465,245.49102 398.630174,245.280688 398.151833,245.280688 C397.75057,245.280688 397.422985,245.106219 397.422985,244.892979 C397.422985,244.679739 397.135074,244.50527 396.783685,244.50527 C396.431164,244.50527 395.633173,243.987679 395.010875,243.354745 C394.387445,242.72084 393.057837,241.837834 392.05468,241.39003 C391.051524,240.943196 389.987157,240.326739 389.690178,240.021418 C389.393198,239.715128 388.807173,239.465056 388.387774,239.465056 C387.968375,239.465056 386.690909,238.958127 385.548331,238.338762 C383.690508,237.330719 382.974129,237.192113 378.772206,237.020552 C376.187803,236.914902 372.236386,236.537855 369.992035,236.182132 C367.747684,235.82544 365.299303,235.437731 364.551186,235.318511 C362.930266,235.061654 362.088067,234.537277 361.582522,233.46914 C361.269673,232.809066 361.203929,232.791619 361.178992,233.358643 C361.131385,234.499476 357.455411,233.662995 356.9578,232.397125 C356.803642,232.00554 356.613213,232.011355 356.023787,232.427173 C354.849471,233.2559 348.001935,232.232349 348.001935,231.228184 C348.001935,231.067284 347.437447,230.935463 346.748272,230.935463 C346.059098,230.935463 344.273819,230.435319 342.780986,229.824678 C341.288153,229.213067 338.751357,228.499683 337.142906,228.238949 C334.041621,227.735897 330.772578,226.685206 330.772578,226.191846 C330.772578,226.029009 330.413254,225.895249 329.973453,225.895249 C329.173194,225.895249 325.199107,223.802591 323.064707,222.257572 C322.441276,221.805891 321.523133,221.246621 321.024389,221.013996 C320.525644,220.781371 319.141628,220.127112 317.948042,219.560088 C316.754455,218.993064 315.224217,218.520059 314.547511,218.508428 C312.363236,218.472565 306.508655,216.394445 306.578933,215.679123 C306.62314,215.219688 306.271751,215.039404 305.332071,215.039404 C304.611159,215.039404 304.021734,215.213873 304.021734,215.427112 C304.021734,216.431278 297.479112,215.222596 295.633757,213.877246 C295.135013,213.51377 294.371027,213.108614 293.935759,212.977762 C293.501625,212.846911 292.756908,212.192652 292.280833,211.523854 C291.805893,210.856026 290.7846,209.980774 290.011546,209.578525 C289.238492,209.176278 288.605993,208.670317 288.605993,208.45417 C288.605993,208.238022 288.236469,208.060645 287.784198,208.060645 C287.333061,208.060645 286.524868,207.711708 285.989852,207.285228 C285.454834,206.858749 284.580898,206.509811 284.048148,206.509811 C283.462124,206.509811 282.987183,206.20449 282.843226,205.734393 C282.539446,204.73992 281.779994,204.752521 280.254289,205.77898 C279.176321,206.503995 278.815865,206.55052 277.132602,206.181228 C276.086372,205.952479 274.51646,205.649097 273.643657,205.508553 C271.596537,205.178031 268.681149,203.914101 268.370567,203.22204 C268.237946,202.926413 266.397125,201.93097 264.280862,201.010162 C259.870372,199.092942 256.545787,196.620329 254.995145,194.105069 C254.404586,193.146459 253.563521,192.024041 253.12712,191.609193 C252.690719,191.194345 252.333663,190.653491 252.333663,190.407296 C252.333663,190.160132 251.91653,189.635756 251.405317,189.240292 C250.895238,188.845799 250.14032,187.902697 249.728856,187.144727 C249.317392,186.386756 248.846985,185.680157 248.684892,185.573537 C248.115871,185.201337 247.346217,183.679579 247.346217,182.929363 C247.346217,182.133591 246.759058,181.054791 245.350105,179.260669 C244.258535,177.871702 243.77906,173.069929 244.641661,172.181107 C245.132472,171.675146 245.123403,171.592759 244.58952,171.690655 C244.146317,171.773043 243.907146,171.387273 243.821,170.452895 C243.559159,167.591604 242.743031,152.549473 242.549201,146.996514 C242.436984,143.797917 242.130936,140.821283 241.869095,140.382203 C240.988358,138.910848 241.530175,136.225964 242.812175,135.705465 C245.524666,134.605342 249.269784,133.620561 250.738813,133.620561 C251.176348,133.620561 252.352933,132.919778 253.354955,132.062942 C254.356978,131.206105 255.874749,130.222294 256.729416,129.875295 C258.27099,129.250114 261.855149,125.293547 261.855149,124.216686 C261.855149,123.924934 262.365229,122.573769 262.98866,121.213881 C263.61209,119.853993 264.12217,118.08604 264.12217,117.286391 C264.12217,116.485772 264.326202,115.723925 264.575574,115.592104 C265.142329,115.292599 265.177468,110.257231 264.615247,109.757087 C264.388545,109.554509 264.104034,108.429184 263.985016,107.256365 C262.77556,95.397323 256.238605,90.0450036 249.682382,95.54756 C247.448233,97.4221319 246.968758,96.1795254 246.42354,87.095509 C246.014343,80.27765 245.42265,74.9398699 244.878565,73.1379934 C244.717607,72.6048939 244.410425,70.5985009 244.196192,68.6793426 C243.339258,61.0085242 242.299829,56.0167738 241.211659,54.349626 C240.622234,53.4462646 239.899055,51.8925217 239.606609,50.8970795 C239.313029,49.9016372 238.894764,48.9924601 238.675997,48.8771167 C238.12511,48.5863351 238.173852,46.7737967 238.731538,46.7737967 C238.980911,46.7737967 239.184943,46.2503898 239.184943,45.6106703 C239.184943,44.8982555 238.969575,44.4853456 238.629523,44.5444712 C238.241862,44.6123202 237.964152,43.5373977 237.710245,40.9940281 C237.420067,38.0978436 237.161627,37.2099906 236.452049,36.6836758 C235.960106,36.3192296 235.55771,35.8210239 235.55771,35.5767673 C235.55771,34.9351093 234.6373,33.6295 232.950636,31.8789949 C232.140176,31.0386362 231.477072,30.1410903 231.477072,29.8861718 C231.477072,29.630284 230.380968,28.7753862 229.041159,27.9863988 C227.70135,27.1974115 226.324134,26.0905029 225.980681,25.5273559 C224.765558,23.5325943 220.144236,20.0858634 216.252895,18.2723555 C214.119629,17.2778826 211.724521,15.9800274 210.931064,15.3878023 C210.136473,14.7955772 209.023366,14.1868744 208.457744,14.035668 C207.892123,13.8854308 206.512641,13.1633232 205.393866,12.4334615 C204.273958,11.7026304 203.191455,11.1045897 202.987424,11.1045897 C202.784525,11.1045897 202.138424,10.6684173 201.5524,10.1353177 C200.966375,9.60221816 200.247729,9.16604577 199.95415,9.16604577 C199.660571,9.16604577 198.819506,8.6755942 198.084991,8.07561488 C197.35161,7.47563556 195.739758,6.75062015 194.504232,6.46468493 C191.655721,5.80461074 189.979259,5.0912266 189.224341,4.21888187 C186.849637,1.47584231 175.59388,-0.791284732 169.587408,0.264252396" id="path-1"></path>
        <filter x="-2.7%" y="-2.5%" width="105.5%" height="106.1%" filterUnits="objectBoundingBox" id="filter-2">
            <feOffset dx="0" dy="2" in="SourceAlpha" result="shadowOffsetOuter1"></feOffset>
            <feGaussianBlur stdDeviation="3.5" in="shadowOffsetOuter1" result="shadowBlurOuter1"></feGaussianBlur>
            <feComposite in="shadowBlurOuter1" in2="SourceAlpha" operator="out" result="shadowBlurOuter1"></feComposite>
            <feColorMatrix values="0 0 0 0 0   0 0 0 0 0   0 0 0 0 0  0 0 0 0.5 0" type="matrix" in="shadowBlurOuter1"></feColorMatrix>
        </filter>
    </defs>
    <g id="Page-1" stroke="none" stroke-width="1" fill="none" fill-rule="evenodd">
        <g id="go-abraham" transform="translate(-13.000000, 4.000000)">
            <text id="go." fill="#403F3F" font-family="Futura-Medium, Futura" font-size="288" font-weight="400">
                <tspan x="0.3046875" y="370">go.</tspan>
            </text>
            <g id="abraham" transform="translate(467.000000, 0.000000)" fill-rule="nonzero">
                <g id="path0">
                    <use fill="black" fill-opacity="1" filter="url(#filter-2)" xlink:href="#path-1"></use>
                    <use stroke="#403F3F" stroke-width="1" fill="#403F3F" xlink:href="#path-1"></use>
                </g>
            </g>
        </g>
    </g>
</svg>